<?xml version="1.0" encoding="utf-8" ?>
<svg baseProfile="full" height="512" version="1.1" width="512" xmlns="http://www.w3.org/2000/svg" xmlns:ev="http://www.w3.org/2001/xml-events" xmlns:xlink="http://www.w3.org/1999/xlink"><defs><clipPath id="clip0"><path d="M 256.0,256.0 L 750.5540230600029,123.48464890750938 A 512,512 0 0,1 750.5540230600029,388.5153510924906 Z" /></clipPath><clipPath id="clip1"><path d="M 256.0,256.0 L 750.5540230600029,388.5153510924906 A 512,512 0 0,1 618.0386719675123,618.0386719675123 Z" /></clipPath><clipPath id="clip2"><path d="M 256.0,256.0 L 618.0386719675123,618.0386719675123 A 512,512 0 0,1 388.5153510924906,750.5540230600029 Z" /></clipPath><clipPath id="clip3"><path d="M 256.0,256.0 L 388.5153510924906,750.5540230600029 A 512,512 0 0,1 123.48464890750932,750.5540230600029 Z" /></clipPath><clipPath id="clip4"><path d="M 256.0,256.0 L 123.48464890750932,750.5540230600029 A 512,512 0 0,1 -106.0386719675123,618.0386719675123 Z" /></clipPath><clipPath id="clip5"><path d="M 256.0,256.0 L -106.0386719675123,618.0386719675123 A 512,512 0 0,1 -238.55402306000292,388.51535109249073 Z" /></clipPath><clipPath id="clip6"><path d="M 256.0,256.0 L -238.55402306000292,388.51535109249073 A 512,512 0 0,1 -238.55402306000298,123.48464890750935 Z" /></clipPath><clipPath id="clip7"><path d="M 256.0,256.0 L -238.55402306000298,123.48464890750935 A 512,512 0 0,1 -106.03867196751241,-106.0386719675123 Z" /></clipPath><clipPath id="clip8"><path d="M 256.0,256.0 L -106.03867196751241,-106.0386719675123 A 512,512 0 0,1 123.48464890750944,-238.55402306000298 Z" /></clipPath><clipPath id="clip9"><path d="M 256.0,256.0 L 123.48464890750944,-238.55402306000298 A 512,512 0 0,1 388.5153510924904,-238.55402306000303 Z" /></clipPath><clipPath id="clip10"><path d="M 256.0,256.0 L 388.5153510924904,-238.55402306000303 A 512,512 0 0,1 618.0386719675123,-106.03867196751241 Z" /></clipPath><clipPath id="clip11"><path d="M 256.0,256.0 L 618.0386719675123,-106.03867196751241 A 512,512 0 0,1 750.5540230600029,123.48464890750941 Z" /></clipPath></defs><g><circle clip-path="url(#clip0)" cx="384.0" cy="256.0" fill="rgb(255, 0, 0)" r="128.0" /><circle clip-path="url(#clip1)" cx="366.85125168440817" cy="320.0" fill="rgb(255, 127, 0)" r="128.0" /><circle clip-path="url(#clip2)" cx="320.0" cy="366.8512516844081" fill="rgb(255, 255, 0)" r="128.0" /><circle clip-path="url(#clip3)" cx="256.0" cy="384.0" fill="rgb(127, 255, 0)" r="128.0" /><circle clip-path="url(#clip4)" cx="192.00000000000003" cy="366.85125168440817" fill="rgb(0, 255, 0)" r="128.0" /><circle clip-path="url(#clip5)" cx="145.14874831559183" cy="320.0" fill="rgb(0, 255, 127)" r="128.0" /><circle clip-path="url(#clip6)" cx="128.0" cy="256.0" fill="rgb(0, 255, 255)" r="128.0" /><circle clip-path="url(#clip7)" cx="145.14874831559186" cy="192.0" fill="rgb(0, 127, 255)" r="128.0" /><circle clip-path="url(#clip8)" cx="191.99999999999994" cy="145.1487483155919" fill="rgb(0, 0, 255)" r="128.0" /><circle clip-path="url(#clip9)" cx="255.99999999999997" cy="128.0" fill="rgb(127, 0, 255)" r="128.0" /><circle clip-path="url(#clip10)" cx="320.0" cy="145.14874831559186" fill="rgb(255, 0, 255)" r="128.0" /><circle clip-path="url(#clip11)" cx="366.8512516844081" cy="191.99999999999994" fill="rgb(255, 0, 127)" r="128.0" /></g></svg>